<svg width="74" height="21" viewBox="0 0 74 21" fill="none" xmlns="http://www.w3.org/2000/svg">
<rect width="74" height="21" rx="5" fill="#4DBD98"/>
<rect width="74" height="21" rx="5" fill="#4DBD98"/>
<rect width="74" height="21" rx="5" fill="#4DBD98"/>
<rect width="74" height="21" rx="5" fill="#4DBD98"/>
<path d="M14.5001 15.9167C14.5001 15.9167 18.8334 13.75 18.8334 10.5V6.70834L14.5001 5.08334L10.1667 6.70834V10.5C10.1667 13.75 14.5001 15.9167 14.5001 15.9167Z" stroke="#FCFCFC" stroke-width="1.5" stroke-linecap="round" stroke-linejoin="round"/>
<path d="M33.94 14.09C33.24 14.09 32.63 13.9433 32.11 13.65C31.5967 13.35 31.2 12.93 30.92 12.39C30.64 11.8433 30.5 11.2033 30.5 10.47C30.5 9.73667 30.64 9.1 30.92 8.56C31.2 8.01333 31.5967 7.59333 32.11 7.3C32.63 7.00667 33.24 6.86 33.94 6.86C34.64 6.86 35.2467 7.00667 35.76 7.3C36.28 7.59333 36.68 8.01333 36.96 8.56C37.24 9.1 37.38 9.73667 37.38 10.47C37.38 11.2033 37.24 11.8433 36.96 12.39C36.68 12.93 36.28 13.35 35.76 13.65C35.2467 13.9433 34.64 14.09 33.94 14.09ZM33.94 12.88C34.5267 12.88 34.9867 12.6733 35.32 12.26C35.66 11.8467 35.83 11.25 35.83 10.47C35.83 9.69 35.6633 9.09667 35.33 8.69C34.9967 8.27667 34.5333 8.07 33.94 8.07C33.3467 8.07 32.8833 8.27667 32.55 8.69C32.2233 9.09667 32.06 9.69 32.06 10.47C32.06 11.25 32.2267 11.8467 32.56 12.26C32.8933 12.6733 33.3533 12.88 33.94 12.88ZM47.1658 6.95H48.6458L46.1358 14H44.8858L43.2558 9.33L41.6058 14H40.3558L37.8558 6.95H39.4358L41.0458 11.82L42.7558 6.95H43.8458L45.4958 11.87L47.1658 6.95ZM54.1881 6.95H55.6481V14H54.4881L50.9781 9.51V14H49.5281V6.95H50.6781L54.1881 11.42V6.95ZM57.0477 14V6.95H61.9077V8.16H58.5677V9.81H61.7077V11.02H58.5677V12.79H61.9077V14H57.0477ZM69.0954 14H67.3954L66.1754 11.75C66.0754 11.5767 65.9554 11.4533 65.8154 11.38C65.6754 11.3 65.4987 11.26 65.2854 11.26H64.5154V14H62.9754V6.95H66.2154C67.0421 6.95 67.6654 7.13333 68.0854 7.5C68.5121 7.86 68.7254 8.38333 68.7254 9.07C68.7254 9.60333 68.5754 10.05 68.2754 10.41C67.9821 10.77 67.5654 11.0067 67.0254 11.12C67.3921 11.2133 67.7021 11.4767 67.9554 11.91L69.0954 14ZM65.9854 10.08C66.4321 10.08 66.7554 10.0033 66.9554 9.85C67.1554 9.69 67.2554 9.44333 67.2554 9.11C67.2554 8.77 67.1554 8.52333 66.9554 8.37C66.7554 8.21667 66.4321 8.14 65.9854 8.14H64.4954V10.08H65.9854Z" fill="#FCFCFC"/>
<line opacity="0.15" x1="26.5" y1="6" x2="26.5" y2="16" stroke="#FCFCFC"/>
</svg>
