<svg width="16" height="13" viewBox="0 0 16 13" fill="none" xmlns="http://www.w3.org/2000/svg">
<path d="M13.8663 3.03714V1.65207L4.5328 1.65174V3.03681L13.8663 3.03714ZM13.8665 8.57707L13.8663 5.11494L4.53271 5.1146L4.53296 8.57673L13.8665 8.57707ZM13.8663 0.267002C14.603 0.267002 15.1997 0.886102 15.1997 1.65207L15.1999 8.57707C15.1999 9.34309 14.6032 9.96214 13.8665 9.96214L4.53296 9.9618C3.79625 9.9618 3.19957 9.34274 3.19957 8.57673L3.20608 1.65174C3.20608 0.885762 3.79608 0.266663 4.5328 0.266663L13.8663 0.267002ZM1.86659 11.3483H11.867V12.7333L1.86675 12.733C1.13004 12.733 0.533363 12.1139 0.533363 11.3479L0.533203 3.73036H1.86659V11.3483Z" fill="white"/>
</svg>
